<svg xmlns="http://www.w3.org/2000/svg" xmlns:xlink="http://www.w3.org/1999/xlink" width="1920" zoomAndPan="magnify" viewBox="0 0 1440 809.999993" height="1080" preserveAspectRatio="xMidYMid meet" version="1.2"><defs><clipPath id="f5a9b063b1"><path d="M 513.75 198.75 L 926.25 198.75 L 926.25 611.25 L 513.75 611.25 Z M 513.75 198.75 "/></clipPath></defs><g id="47921491d8"><rect x="0" width="1440" y="0" height="809.999993" style="fill:#ffffff;fill-opacity:1;stroke:none;"/><g clip-rule="nonzero" clip-path="url(#f5a9b063b1)"><path style=" stroke:none;fill-rule:nonzero;fill:#ffffff;fill-opacity:1;" d="M 513.75 198.75 L 926.25 198.75 L 926.25 611.25 L 513.75 611.25 Z M 513.75 198.75 "/><path style=" stroke:none;fill-rule:evenodd;fill:#000000;fill-opacity:1;" d="M 641.039062 198.75 L 798.945312 198.75 C 801.03125 198.75 803.113281 198.800781 805.191406 198.902344 C 807.273438 199.003906 809.351562 199.160156 811.425781 199.363281 C 813.496094 199.566406 815.5625 199.820312 817.625 200.128906 C 819.683594 200.433594 821.738281 200.789062 823.78125 201.195312 C 825.824219 201.601562 827.855469 202.058594 829.875 202.566406 C 831.898438 203.070312 833.90625 203.625 835.898438 204.230469 C 837.890625 204.835938 839.871094 205.488281 841.832031 206.191406 C 843.792969 206.894531 845.734375 207.640625 847.660156 208.441406 C 849.585938 209.238281 851.488281 210.082031 853.371094 210.972656 C 855.253906 211.863281 857.117188 212.796875 858.953125 213.78125 C 860.789062 214.761719 862.601562 215.789062 864.390625 216.859375 C 866.175781 217.929688 867.933594 219.046875 869.667969 220.203125 C 871.398438 221.359375 873.101562 222.558594 874.777344 223.800781 C 876.449219 225.042969 878.089844 226.324219 879.699219 227.644531 C 881.3125 228.964844 882.886719 230.324219 884.433594 231.726562 C 885.976562 233.125 887.484375 234.558594 888.957031 236.035156 C 890.429688 237.507812 891.867188 239.015625 893.265625 240.558594 C 894.664062 242.101562 896.023438 243.679688 897.347656 245.289062 C 898.667969 246.898438 899.949219 248.542969 901.191406 250.214844 C 902.429688 251.886719 903.628906 253.589844 904.789062 255.324219 C 905.945312 257.054688 907.058594 258.816406 908.128906 260.601562 C 909.199219 262.386719 910.226562 264.199219 911.210938 266.039062 C 912.191406 267.875 913.128906 269.734375 914.019531 271.617188 C 914.910156 273.5 915.753906 275.40625 916.550781 277.332031 C 917.347656 279.253906 918.097656 281.199219 918.800781 283.160156 C 919.5 285.121094 920.15625 287.097656 920.757812 289.09375 C 921.363281 291.085938 921.917969 293.09375 922.425781 295.113281 C 922.933594 297.132812 923.386719 299.167969 923.792969 301.210938 C 924.199219 303.253906 924.558594 305.304688 924.863281 307.367188 C 925.167969 309.425781 925.421875 311.492188 925.628906 313.566406 C 925.832031 315.640625 925.984375 317.714844 926.085938 319.796875 C 926.1875 321.878906 926.242188 323.960938 926.242188 326.042969 L 926.242188 483.949219 C 926.242188 486.03125 926.1875 488.113281 926.085938 490.195312 C 925.984375 492.277344 925.832031 494.351562 925.628906 496.425781 C 925.421875 498.5 925.167969 500.566406 924.863281 502.628906 C 924.558594 504.6875 924.199219 506.738281 923.792969 508.78125 C 923.386719 510.828125 922.929688 512.859375 922.425781 514.878906 C 921.917969 516.898438 921.363281 518.90625 920.757812 520.902344 C 920.15625 522.894531 919.5 524.871094 918.800781 526.832031 C 918.097656 528.792969 917.347656 530.738281 916.550781 532.664062 C 915.753906 534.585938 914.910156 536.492188 914.019531 538.375 C 913.128906 540.257812 912.191406 542.117188 911.210938 543.957031 C 910.226562 545.792969 909.199219 547.605469 908.128906 549.390625 C 907.058594 551.179688 905.945312 552.9375 904.789062 554.667969 C 903.628906 556.402344 902.429688 558.105469 901.191406 559.777344 C 899.949219 561.453125 898.667969 563.09375 897.347656 564.703125 C 896.023438 566.3125 894.664062 567.890625 893.265625 569.433594 C 891.867188 570.976562 890.429688 572.484375 888.957031 573.960938 C 887.484375 575.433594 885.976562 576.867188 884.433594 578.265625 C 882.886719 579.667969 881.3125 581.027344 879.699219 582.347656 C 878.089844 583.671875 876.449219 584.953125 874.777344 586.191406 C 873.101562 587.433594 871.398438 588.632812 869.667969 589.789062 C 867.933594 590.949219 866.175781 592.0625 864.390625 593.132812 C 862.601562 594.203125 860.789062 595.230469 858.953125 596.210938 C 857.117188 597.195312 855.253906 598.128906 853.371094 599.019531 C 851.488281 599.910156 849.585938 600.753906 847.660156 601.554688 C 845.734375 602.351562 843.792969 603.101562 841.832031 603.800781 C 839.871094 604.503906 837.890625 605.15625 835.898438 605.761719 C 833.90625 606.367188 831.898438 606.921875 829.875 607.429688 C 827.855469 607.933594 825.824219 608.390625 823.78125 608.796875 C 821.738281 609.203125 819.683594 609.558594 817.625 609.863281 C 815.5625 610.171875 813.496094 610.425781 811.425781 610.628906 C 809.351562 610.835938 807.273438 610.988281 805.191406 611.089844 C 803.113281 611.191406 801.03125 611.242188 798.945312 611.242188 L 641.039062 611.242188 C 638.957031 611.242188 636.875 611.191406 634.792969 611.089844 C 632.714844 610.988281 630.636719 610.835938 628.5625 610.628906 C 626.492188 610.425781 624.421875 610.171875 622.363281 609.863281 C 620.300781 609.558594 618.25 609.203125 616.207031 608.796875 C 614.164062 608.390625 612.132812 607.933594 610.109375 607.429688 C 608.089844 606.921875 606.082031 606.367188 604.089844 605.761719 C 602.097656 605.15625 600.117188 604.503906 598.15625 603.800781 C 596.195312 603.101562 594.253906 602.351562 592.328125 601.554688 C 590.402344 600.753906 588.5 599.910156 586.617188 599.019531 C 584.734375 598.128906 582.871094 597.195312 581.035156 596.210938 C 579.199219 595.230469 577.386719 594.203125 575.597656 593.132812 C 573.8125 592.0625 572.050781 590.949219 570.320312 589.789062 C 568.589844 588.632812 566.886719 587.433594 565.210938 586.191406 C 563.539062 584.953125 561.898438 583.671875 560.285156 582.347656 C 558.675781 581.027344 557.097656 579.667969 555.554688 578.265625 C 554.011719 576.867188 552.503906 575.433594 551.03125 573.960938 C 549.558594 572.484375 548.121094 570.976562 546.722656 569.433594 C 545.324219 567.890625 543.964844 566.3125 542.640625 564.703125 C 541.320312 563.09375 540.039062 561.453125 538.796875 559.777344 C 537.558594 558.105469 536.359375 556.402344 535.199219 554.667969 C 534.042969 552.9375 532.929688 551.179688 531.859375 549.390625 C 530.785156 547.605469 529.761719 545.792969 528.777344 543.957031 C 527.796875 542.117188 526.859375 540.257812 525.96875 538.375 C 525.078125 536.492188 524.234375 534.585938 523.4375 532.664062 C 522.640625 530.738281 521.890625 528.792969 521.1875 526.832031 C 520.488281 524.871094 519.832031 522.894531 519.230469 520.902344 C 518.625 518.90625 518.070312 516.898438 517.5625 514.878906 C 517.054688 512.859375 516.601562 510.828125 516.195312 508.78125 C 515.785156 506.738281 515.429688 504.6875 515.125 502.628906 C 514.820312 500.566406 514.566406 498.5 514.359375 496.425781 C 514.15625 494.351562 514.003906 492.277344 513.902344 490.195312 C 513.796875 488.113281 513.746094 486.03125 513.746094 483.949219 L 513.746094 326.042969 C 513.746094 323.960938 513.796875 321.878906 513.902344 319.796875 C 514.003906 317.714844 514.15625 315.640625 514.359375 313.566406 C 514.566406 311.492188 514.820312 309.425781 515.125 307.367188 C 515.429688 305.304688 515.785156 303.253906 516.195312 301.210938 C 516.601562 299.167969 517.054688 297.132812 517.5625 295.113281 C 518.070312 293.09375 518.625 291.085938 519.230469 289.09375 C 519.832031 287.097656 520.488281 285.121094 521.1875 283.160156 C 521.890625 281.199219 522.640625 279.253906 523.4375 277.332031 C 524.234375 275.40625 525.078125 273.5 525.96875 271.617188 C 526.859375 269.734375 527.796875 267.875 528.777344 266.039062 C 529.761719 264.199219 530.785156 262.386719 531.859375 260.601562 C 532.929688 258.816406 534.042969 257.054688 535.199219 255.324219 C 536.359375 253.589844 537.558594 251.886719 538.796875 250.214844 C 540.039062 248.542969 541.320312 246.898438 542.640625 245.289062 C 543.964844 243.679688 545.324219 242.101562 546.722656 240.558594 C 548.121094 239.015625 549.558594 237.507812 551.03125 236.035156 C 552.503906 234.558594 554.011719 233.125 555.554688 231.726562 C 557.097656 230.324219 558.675781 228.964844 560.285156 227.644531 C 561.898438 226.324219 563.539062 225.042969 565.210938 223.800781 C 566.886719 222.558594 568.589844 221.359375 570.320312 220.203125 C 572.050781 219.046875 573.8125 217.929688 575.597656 216.859375 C 577.386719 215.789062 579.199219 214.761719 581.035156 213.78125 C 582.871094 212.796875 584.734375 211.863281 586.617188 210.972656 C 588.5 210.082031 590.402344 209.238281 592.328125 208.441406 C 594.253906 207.640625 596.195312 206.894531 598.15625 206.191406 C 600.117188 205.488281 602.097656 204.835938 604.089844 204.230469 C 606.082031 203.625 608.089844 203.070312 610.109375 202.566406 C 612.132812 202.058594 614.164062 201.601562 616.207031 201.195312 C 618.25 200.789062 620.300781 200.433594 622.363281 200.128906 C 624.421875 199.820312 626.492188 199.566406 628.5625 199.363281 C 630.636719 199.160156 632.714844 199.003906 634.792969 198.902344 C 636.875 198.800781 638.957031 198.75 641.039062 198.75 Z M 641.039062 198.75 "/></g><path style=" stroke:none;fill-rule:nonzero;fill:#fefefe;fill-opacity:1;" d="M 713.242188 421.335938 L 702.855469 406.46875 L 620.1875 288.226562 L 655.785156 288.226562 L 722.492188 383.660156 L 732.882812 398.511719 L 819.597656 522.558594 L 784.011719 522.558594 L 713.246094 421.339844 Z M 744.980469 384.4375 L 842.757812 270.78125 L 819.574219 270.78125 L 734.679688 369.46875 L 666.878906 270.78125 L 588.671875 270.78125 L 691.203125 420.011719 L 588.671875 539.199219 L 611.839844 539.199219 L 701.488281 434.988281 L 773.109375 539.199219 L 851.316406 539.199219 L 744.964844 384.441406 L 744.980469 384.441406 Z M 744.980469 384.4375 "/></g></svg>